<?xml version="1.0" standalone="no"?><!DOCTYPE svg PUBLIC "-//W3C//DTD SVG 1.1//EN" "http://www.w3.org/Graphics/SVG/1.1/DTD/svg11.dtd"><svg t="1555569586709" class="icon" style="" viewBox="0 0 1024 1024" version="1.1" xmlns="http://www.w3.org/2000/svg" p-id="1586" xmlns:xlink="http://www.w3.org/1999/xlink" width="200" height="200"><defs><style type="text/css"></style></defs><path d="M723.735891 471.553279l0 381.102612-42.353085 0L681.382806 302.158728l84.697375 0L512.008043 132.784364l-254.081533 169.374164 84.686782 0 0 550.497363-42.333098 0L300.280194 471.553279 130.885444 471.553279 130.885444 895.010175l762.225211 0L893.110655 471.553279 723.735891 471.553279zM173.239128 556.240661l84.687382 0 0 42.354284L173.239128 598.594945 173.239128 556.240661zM173.239128 640.928043l84.687382 0 0 42.333098L173.239128 683.261141 173.239128 640.928043zM173.239128 725.635411l84.687382 0 0 42.333298L173.239128 767.968709 173.239128 725.635411zM512.008043 344.512812c46.775086 0 84.687382 37.901703 84.687382 84.686782s-37.912295 84.687382-84.687382 84.687382c-46.78508 0-84.686782-37.902102-84.686782-84.687382S465.222763 344.512812 512.008043 344.512812zM427.32106 852.656091 427.32106 640.928043l169.374364 0 0 211.727849L427.32106 852.655891zM766.080182 556.240661l84.686383 0 0 42.354284-84.686383 0L766.080182 556.240661zM766.080182 640.928043l84.686383 0 0 42.333098-84.686383 0L766.080182 640.928043zM766.080182 725.635411l84.686383 0 0 42.333298-84.686383 0L766.080182 725.635411z" p-id="1587" fill="#36ab60"></path></svg>